<svg width="31" height="31" viewBox="0 0 31 31" fill="none" xmlns="http://www.w3.org/2000/svg">
<g clip-path="url(#clip0_312_102)">
<path d="M26.4129 5.9042C24.4419 5.00181 22.3611 4.36163 20.2237 4C19.9312 4.52286 19.6665 5.06081 19.4308 5.61161C17.1541 5.26853 14.8388 5.26853 12.562 5.61161C12.3262 5.06087 12.0616 4.52292 11.7692 4C9.63043 4.36468 7.54826 5.00639 5.57525 5.90892C1.65831 11.7041 0.596485 17.3554 1.1274 22.9264C3.42126 24.6212 5.98874 25.9101 8.71824 26.7371C9.33284 25.9105 9.87669 25.0336 10.344 24.1156C9.4564 23.7841 8.59971 23.3751 7.78384 22.8933C7.99856 22.7376 8.20857 22.5772 8.41149 22.4214C10.7855 23.5379 13.3766 24.1167 16 24.1167C18.6234 24.1167 21.2145 23.5379 23.5885 22.4214C23.7937 22.589 24.0038 22.7494 24.2161 22.8933C23.3987 23.3759 22.5404 23.7857 21.6512 24.118C22.118 25.0355 22.6619 25.9117 23.277 26.7371C26.0088 25.9134 28.5783 24.6251 30.8726 22.9287C31.4955 16.4681 29.8084 10.8688 26.4129 5.9042ZM11.0165 19.5002C9.53702 19.5002 8.31475 18.1576 8.31475 16.5059C8.31475 14.8542 9.49455 13.4998 11.0118 13.4998C12.529 13.4998 13.7418 14.8542 13.7159 16.5059C13.6899 18.1576 12.5243 19.5002 11.0165 19.5002ZM20.9835 19.5002C19.5016 19.5002 18.2841 18.1576 18.2841 16.5059C18.2841 14.8542 19.4639 13.4998 20.9835 13.4998C22.503 13.4998 23.7064 14.8542 23.6805 16.5059C23.6545 18.1576 22.4912 19.5002 20.9835 19.5002Z" fill="white"/>
</g>
<defs>
<clipPath id="clip0_312_102">
<rect width="30" height="30" fill="white" transform="translate(0.694824 0.0678711)"/>
</clipPath>
</defs>
</svg>
